<?xml version="1.0" encoding="utf-8"?>
<!-- Generator: Adobe Illustrator 28.2.0, SVG Export Plug-In . SVG Version: 6.00 Build 0)  -->
<svg version="1.1" id="Capa_1" xmlns="http://www.w3.org/2000/svg" xmlns:xlink="http://www.w3.org/1999/xlink" x="0px" y="0px"
	 viewBox="0 0 54 49" style="enable-background:new 0 0 54 49;" xml:space="preserve">
<style type="text/css">
	.st0{fill:url(#SVGID_1_);}
	.st1{fill:url(#SVGID_00000054984653411466188210000006195621321285152444_);}
	.st2{fill:#1D1D1D;}
	.st3{fill:url(#SVGID_00000179616850005065695090000017466609036615426479_);}
	.st4{fill:url(#SVGID_00000057858994023568312340000007673721329471105185_);}
</style>
<symbol  id="Nuevo_símbolo" viewBox="-338.2 -307.5 676.3 615">
	<g>
		<linearGradient id="SVGID_1_" gradientUnits="userSpaceOnUse" x1="-162.5381" y1="-123.2151" x2="296.8611" y2="-123.2151">
			<stop  offset="0" style="stop-color:#FF92FF"/>
			<stop  offset="1" style="stop-color:#3DE2DC"/>
		</linearGradient>
		<path class="st0" d="M-162.5-178.2c12.3,0.6,11-22.5,22.6-26.7c3.9-1.4,8.3-0.1,12.2,1.1c17.9,5.8,36.1,11.6,52.2,21.4
			c13.9,8.4,28.3,20.2,44.3,17.3c5.7-1,11-3.9,16.7-4.2c17.3-1,26.9,19.5,41.1,29.4c20.5,14.2,51.8,6.2,70.2,23.1
			c6.1,5.6,9.9,13.3,16.1,18.9c17.3,15.8,44.8,9,67.3,15.6c22,6.4,39.8,26.1,62.7,27.1c10.5,0.5,20.8-3.1,31.3-2.9
			s22.3,6.7,22.8,17.2"/>
	</g>
	<g>
		
			<linearGradient id="SVGID_00000093874013719345229840000007630198406719425681_" gradientUnits="userSpaceOnUse" x1="-269.6823" y1="-30.1229" x2="296.7505" y2="-30.1229">
			<stop  offset="0" style="stop-color:#FF92FF"/>
			<stop  offset="1" style="stop-color:#3DE2DC"/>
		</linearGradient>
		<path style="fill:url(#SVGID_00000093874013719345229840000007630198406719425681_);" d="M296.4-41.2C298.2-7.4,294,29.2,272,55
			c-23.6,27.6-66.3,36.7-99.1,21.1c-10.5-5-23.3-12.1-32.5-5.1c-4.1,3.1-6.1,8.3-9.1,12.5c-12.7,18.1-39.5,15.9-61.1,21.1
			c-21.6,5.2-42.4,19.6-64.1,14.6c-12.6-2.9-22.7-11.9-34.4-17.3c-13.1-6.1-27.8-7.6-41.8-11c-14-3.4-28.5-9.6-36.2-21.8
			c-3.5-5.6-5.6-12.3-10.7-16.5c-6-4.9-14.5-5-22.3-4.8c-27.2,0.7-55.2,1-80.6-8.8s-47.9-32.2-49.5-59.3c-0.6-9.6,1.4-19.2,3.4-28.6
			c2.7-13,5.5-25.9,8.2-38.9c3-14.1,7-29.7,19.4-37.2c5.9-3.6,13.3-4.9,17.9-10.1c5.6-6.3,5-15.9,8-23.7
			c3.8-9.7,13.3-16.2,23.2-19.1c10-2.9,20.6-2.7,31-2.5"/>
	</g>
	<g>
		<g>
			<g>
				<path class="st2" d="M-18.7-86c0-0.1-0.7,0-2.1,0.1c-1.3,0.1-3.3,0.3-5.9,0.6c-5.1,0.6-12.5,1.7-21.5,3.5
					c-9,1.8-19.7,4.4-31.3,8c-5.8,1.8-11.9,3.9-18.1,6.2c-6.2,2.3-12.5,5-19,7.7c-3.2,1.3-6.4,2.6-9.7,3.7c-1.6,0.5-3.2,1-4.8,1.5
					c-1.6,0.4-3.2,0.8-4.8,1.2c-6.4,1.4-12.8,2-18.8,2.6c-12.1,1-23.1,1.5-32.2,3.2c-1.1,0.2-2.2,0.4-3.3,0.6
					c-1.1,0.3-2.1,0.5-3.1,0.7c-2,0.4-3.9,1.1-5.7,1.6c-0.4,0.1-0.9,0.3-1.3,0.4c-0.4,0.1-0.8,0.3-1.2,0.5c-0.8,0.3-1.6,0.6-2.3,0.9
					c-1.5,0.5-2.7,1.3-3.9,1.8c-2.3,1.1-4,2.3-5.1,3.1c-1.1,0.8-1.7,1.2-1.7,1.2c0,0,0.7-0.3,1.8-1c0.6-0.3,1.3-0.8,2.1-1.3
					c0.2-0.1,0.4-0.3,0.7-0.4c0.2-0.1,0.5-0.2,0.7-0.4c0.5-0.2,1.1-0.5,1.6-0.8c1.2-0.5,2.4-1.2,3.9-1.7c0.7-0.3,1.5-0.6,2.3-0.9
					c0.4-0.1,0.8-0.3,1.2-0.4c0.4-0.1,0.8-0.2,1.3-0.4c1.7-0.5,3.6-1.1,5.6-1.5c1-0.2,2-0.4,3.1-0.7c1.1-0.2,2.2-0.4,3.3-0.5
					c9-1.5,20-1.9,32.1-2.8c6.1-0.5,12.5-1.1,19-2.5c1.6-0.4,3.3-0.8,4.9-1.2c1.6-0.4,3.3-0.9,4.9-1.5c3.3-1.1,6.5-2.4,9.8-3.7
					c6.5-2.7,12.7-5.4,18.9-7.8c6.2-2.3,12.2-4.4,18-6.3c11.6-3.7,22.2-6.4,31.1-8.3c9-2,16.3-3.2,21.4-4c2.5-0.4,4.5-0.7,5.8-0.9
					C-19.4-85.8-18.7-86-18.7-86z"/>
			</g>
		</g>
	</g>
	<g>
		<g>
			<g>
				<path class="st2" d="M-111.3-61.2c-0.1-0.1-0.8,0.8-2.2,2.2c-1.4,1.4-3.6,3.3-6.4,5.4c-2.8,2.2-6.3,4.8-9.2,8.7
					c-2.9,3.9-5,8.8-6.8,13.9c-3.6,10.4-4.7,20.4-4.7,27.5c0,3.6,0.2,6.5,0.5,8.5c0.3,2,0.5,3.1,0.6,3.1c0.3,0-0.2-4.4,0-11.5
					c0.3-7.1,1.5-16.9,5.1-27.1c1.8-5.1,3.8-9.9,6.5-13.6c2.7-3.7,6-6.4,8.7-8.7c2.7-2.3,4.8-4.3,6.1-5.9
					C-111.7-60.2-111.2-61.1-111.3-61.2z"/>
			</g>
		</g>
	</g>
	<g>
		<g>
			<g>
				<path class="st2" d="M-93-126.2c-0.1,0.2,2.8,1.8,6.9,5.1c0.5,0.4,1.1,0.8,1.6,1.3c0.6,0.5,1.1,1,1.7,1.5c1.2,1,2.3,2.2,3.5,3.5
					c2.4,2.6,4.8,5.5,7,8.9c2.2,3.4,3.9,6.8,5.3,10c0.6,1.6,1.3,3.1,1.8,4.6c0.2,0.7,0.5,1.4,0.7,2.1c0.2,0.7,0.4,1.4,0.6,2
					c1.4,5.1,1.7,8.4,1.9,8.4c0.1,0,0.1-0.8,0-2.3c0-0.4-0.1-0.8-0.1-1.2c0-0.5-0.1-0.9-0.2-1.5c-0.2-1.1-0.3-2.3-0.6-3.6
					c-0.1-0.7-0.3-1.3-0.5-2.1c-0.2-0.7-0.4-1.4-0.6-2.2c-0.4-1.5-1-3.1-1.7-4.8c-1.4-3.3-3.1-6.8-5.4-10.3c-2.3-3.4-4.8-6.4-7.3-9
					c-1.3-1.2-2.5-2.4-3.7-3.4c-0.6-0.5-1.2-1-1.8-1.5c-0.6-0.4-1.2-0.9-1.7-1.3c-1.1-0.8-2.1-1.4-3-2c-0.5-0.3-0.9-0.5-1.3-0.8
					c-0.4-0.2-0.8-0.4-1.1-0.6C-92.2-125.9-92.9-126.2-93-126.2z"/>
			</g>
		</g>
	</g>
	<g>
		<g>
			<g>
				<path class="st2" d="M-18.1-86.9c-0.1,0.1,0.6,1.5,1.6,4.3c1,2.8,2.2,6.8,3.3,12c1,5.1,2,11.4,2.7,18.3c0.7,6.9,1,14.6,0.4,22.5
					c-0.7,8-2.4,15.4-4.9,21.9c-1.3,3.2-2.7,6.2-4.3,8.8c-1.6,2.6-3.2,5-4.8,7.1c-3.3,4.1-6.5,6.9-8.8,8.7c-0.6,0.4-1.1,0.9-1.5,1.2
					c-0.5,0.3-0.9,0.6-1.2,0.8c-0.6,0.5-0.9,0.7-0.9,0.8c0,0,0.4-0.1,1.1-0.5c0.3-0.2,0.8-0.4,1.3-0.7c0.5-0.3,1-0.7,1.6-1.1
					c2.4-1.7,5.8-4.4,9.2-8.5c1.7-2.1,3.4-4.4,5.1-7.1c1.6-2.7,3.1-5.7,4.5-8.9c2.7-6.5,4.5-14.2,5.1-22.2
					c0.7-8.1,0.3-15.8-0.5-22.8c-0.8-7-1.9-13.2-3.1-18.3c-1.2-5.2-2.6-9.2-3.8-12c-0.6-1.4-1.1-2.4-1.5-3.1
					C-17.8-86.5-18.1-86.9-18.1-86.9z"/>
			</g>
		</g>
	</g>
	<g>
		<g>
			<g>
				<path class="st2" d="M51.5-13.5c0.1-0.1-0.4-0.8-1.4-2c-0.3-0.3-0.5-0.6-0.8-1c-0.3-0.4-0.7-0.7-1.1-1.1
					c-0.8-0.8-1.7-1.8-2.8-2.6c-0.5-0.5-1.1-0.9-1.7-1.4c-0.6-0.5-1.3-0.9-1.9-1.4c-1.3-1-2.9-1.9-4.5-2.9c-3.3-1.9-7-3.6-11.2-4.9
					c-4.2-1.3-8.2-2-12-2.4c-1.9-0.1-3.7-0.2-5.3-0.2c-0.8,0-1.6,0-2.4,0.1c-0.8,0.1-1.5,0.1-2.2,0.2c-1.4,0.1-2.7,0.4-3.8,0.6
					c-0.6,0.1-1.1,0.2-1.5,0.3c-0.5,0.1-0.9,0.3-1.3,0.4c-1.5,0.4-2.3,0.7-2.3,0.8s0.9,0,2.4-0.3c0.4-0.1,0.8-0.1,1.3-0.2
					c0.5-0.1,1-0.1,1.5-0.2c1.1-0.1,2.3-0.3,3.7-0.4c0.7,0,1.4-0.1,2.2-0.1c0.8,0,1.5,0,2.4,0c1.6,0,3.4,0.2,5.2,0.3
					c3.6,0.4,7.6,1.2,11.7,2.4c4,1.3,7.7,3,10.9,4.7c1.6,0.9,3.1,1.8,4.4,2.7c0.7,0.5,1.3,0.9,1.9,1.3c0.6,0.5,1.2,0.9,1.7,1.3
					c1.1,0.8,2,1.7,2.9,2.4c0.4,0.4,0.8,0.7,1.2,1c0.3,0.3,0.6,0.6,0.9,0.9C50.7-14,51.4-13.4,51.5-13.5z"/>
			</g>
		</g>
	</g>
	<g>
		<g>
			<g>
				<path class="st2" d="M218.9-8c0,0-0.2-0.6-0.7-1.5c-0.3-0.5-0.7-1.1-1.1-1.8c-0.5-0.7-1-1.5-1.7-2.3c-2.7-3.3-7.4-7.5-14.4-10.9
					c-3.4-1.7-7.4-3.1-11.8-4.3c-4.3-1.1-9.1-2-14-2.8c-5-0.7-10.2-1.4-15.6-2.3c-5.4-0.9-10.9-1.9-16.5-3.4
					c-11.1-2.9-21.4-7.2-29.5-13c-8.1-5.8-13.9-12.9-17.4-19.5c-1.8-3.3-3.1-6.5-3.9-9.3c-0.5-1.4-0.7-2.8-1-4
					c-0.2-1.3-0.4-2.4-0.5-3.5c-0.1-1.1-0.1-2-0.2-2.8c-0.1-0.8,0-1.5,0-2.1c0-1.1,0-1.7-0.1-1.7s-0.1,0.6-0.2,1.7
					c0,0.6-0.1,1.3-0.1,2.1c0,0.8,0,1.8,0.1,2.8c0.1,1.1,0.2,2.3,0.4,3.5c0.3,1.3,0.4,2.7,0.9,4.1c0.7,3,2,6.2,3.7,9.6
					c3.5,6.8,9.3,14.2,17.6,20.1c8.2,6,18.6,10.5,29.9,13.4c5.6,1.5,11.2,2.5,16.6,3.4c5.4,0.9,10.7,1.5,15.6,2.2
					c5,0.7,9.6,1.5,13.9,2.6c4.3,1.1,8.2,2.4,11.6,4c6.9,3.1,11.6,7.1,14.4,10.3C217.8-10.1,218.8-7.9,218.9-8z"/>
			</g>
		</g>
	</g>
	<g>
		<g>
			<g>
				<path class="st2" d="M133.7-34.1c-0.3,0.1,1.4,3,2,8.2c0.3,2.6,0.3,5.7-0.4,9c-0.7,3.3-2.1,6.9-4.3,10.1
					c-2.3,3.2-5.2,5.6-8.1,7.3c-2.9,1.7-5.9,2.8-8.4,3.3c-5.1,1.1-8.4,0.5-8.4,0.8c0,0.1,0.8,0.3,2.3,0.5c1.5,0.2,3.7,0.2,6.3-0.2
					c2.7-0.4,5.8-1.4,8.9-3.1c3.1-1.7,6.2-4.3,8.7-7.7c2.4-3.4,3.8-7.2,4.5-10.7c0.6-3.5,0.6-6.8,0.1-9.4c-0.4-2.7-1.2-4.7-1.8-6.1
					C134.3-33.5,133.8-34.2,133.7-34.1z"/>
			</g>
		</g>
	</g>
	<g>
		<g>
			<g>
				<path class="st2" d="M79.7,54.4c0-0.1-1.5-0.6-4.2-1.3c-2.8-0.7-6.8-1.7-12-1.7c-2.6,0-5.5,0.4-8.4,1.5
					c-2.9,1.1-5.7,3.1-7.8,5.9c-2.1,2.8-3.6,6.1-4.6,9.7c-1,3.6-1.5,7.4-2,11.3c-0.4,3.9-0.9,7.6-1.7,11.1c-0.8,3.5-2.2,6.7-4,9.4
					c-1.8,2.7-4.1,5-6.4,6.8c-2.3,1.8-4.7,3.2-7,4.3c-4.5,2.2-8.5,3.5-11.2,4.3C7.5,116.5,6,116.9,6,117c0,0.1,0.4,0,1.1-0.1
					c0.7-0.1,1.8-0.3,3.2-0.7c2.8-0.7,6.8-1.8,11.5-3.9c2.3-1.1,4.8-2.5,7.3-4.3c2.4-1.8,4.8-4.1,6.8-7c2-2.8,3.4-6.2,4.3-9.9
					c0.9-3.6,1.3-7.4,1.8-11.3c0.4-3.9,0.9-7.6,1.9-11.1c1-3.5,2.4-6.7,4.3-9.3c1.9-2.6,4.5-4.5,7.2-5.6c2.7-1.1,5.4-1.5,7.9-1.6
					c5-0.1,9.1,0.7,11.9,1.2C78.1,54.2,79.7,54.5,79.7,54.4z"/>
			</g>
		</g>
	</g>
	<g>
		<g>
			<g>
				<path class="st2" d="M-15.4,59.1c-0.1,0.1,0.7,0.7,1.9,2c1.2,1.3,2.6,3.4,4.1,6.2c1.5,2.8,3.2,6.3,6.2,9.5
					c1.5,1.6,3.2,3.1,5.4,4.3c2.1,1.2,4.6,1.8,7.1,2.1c5.1,0.4,9.8-0.7,13.8-1.9c4.1-1.2,7.7-2.8,10.5-4.3c2.9-1.5,5-3,6.5-4
					c1.5-1.1,2.2-1.8,2.1-1.8c-0.1-0.2-3.3,2.2-9.1,4.9c-2.9,1.4-6.4,2.8-10.4,3.9c-4,1.1-8.6,2.1-13.3,1.8
					c-2.4-0.2-4.6-0.8-6.5-1.9c-2-1-3.6-2.4-5-3.9c-2.9-3-4.6-6.4-6.3-9.1c-1.6-2.8-3.3-4.9-4.7-6.1C-14.5,59.5-15.4,59-15.4,59.1z"
					/>
			</g>
		</g>
	</g>
	<g>
		
			<linearGradient id="SVGID_00000072963142510563737010000000310544954748501181_" gradientUnits="userSpaceOnUse" x1="-338.1676" y1="121.6865" x2="338.1676" y2="121.6865">
			<stop  offset="0" style="stop-color:#FF92FF"/>
			<stop  offset="1" style="stop-color:#3DE2DC"/>
		</linearGradient>
		<path style="fill:url(#SVGID_00000072963142510563737010000000310544954748501181_);" d="M3.4,172c13.7,36.9,35.7,71.1,66,96.2
			c30.3,25,69.4,40.3,108.7,38.9c66.3-2.3,125.2-53,147.7-115.3c22.5-62.4,12.5-133.3-16.2-193.1c-2.5,36-22.2,70.9-53.1,89.4
			s-72.6,18.7-102.4-1.6c-1.7-1.1-3.4-2.4-5.4-2.5c-5.5-0.4-7.9,6.5-10.3,11.5c-6.7,14.1-24,18.9-39.3,22.3
			c-18.6,4-37.1,8.1-55.7,12.1c-12.6,2.7-25.5,5.5-38.4,4.2c-25.7-2.6-47-20.8-71.7-28.4c-14.4-4.5-30.3-5.5-43-13.8
			c-10-6.5-17.1-17-27.2-23.3c-23.2-14.4-53.6-3-80.4-8c-25.4-4.7-46.5-24.6-56.7-48.3s-10.6-50.9-5.6-76.3
			C-316.5-6-336.9,62.4-338.1,131.1c-0.3,16.5,0.5,33,3.9,49.2c8.8,42.9,36.2,81.6,73.6,104.3c37.5,22.7,84.5,28.9,126.5,16.9
			c62.3-17.8,108.3-72.4,134.6-131.7"/>
	</g>
	<g>
		
			<linearGradient id="SVGID_00000176028065758375252030000006027294244358378628_" gradientUnits="userSpaceOnUse" x1="-130.4462" y1="-190.6914" x2="248.5742" y2="-190.6914">
			<stop  offset="0" style="stop-color:#FF92FF"/>
			<stop  offset="1" style="stop-color:#3DE2DC"/>
		</linearGradient>
		<path style="fill:url(#SVGID_00000176028065758375252030000006027294244358378628_);" d="M-130.4-221.8
			c24.7,5.6,48.7,15.3,70.6,28.6c6.7,4,13.7,8.6,21.4,8.3c4.6-0.2,9-2.1,13.6-2.9c19.6-3.6,36.8,12.6,51.8,26.4
			c4.8,4.4,9.9,8.8,16.1,10c4,0.8,8.1,0.2,12.2,0.1c21.4-0.7,41.7,11.3,56.9,27.3c5.1,5.4,10,11.3,16.4,14.7
			c10.1,5.2,22,3.1,33.2,4.1c30.7,2.8,56.1,29.5,86.8,31.4c-0.6-3.5-2.9-6.4-5.1-9.2c-13.6-16.7-27.2-33.5-40.8-50.2
			c-12.2-15-24.3-29.9-37.9-43.4c-14.5-14.5-30.6-27.1-46.6-39.7c-37.3-29.4-74.7-58.8-113.7-85.5c-3.9-2.6-8-5.3-12.5-5.5
			c-8.2-0.3-14.5,7.1-19.9,13.7c-26.1,31.7-59.8,56.2-97.1,70.6"/>
	</g>
	<g>
		<g>
			<g>
				<path class="st2" d="M171-142.3c0-0.1-0.6-0.4-1.7-0.2c-0.6,0.1-1.2,0.3-1.9,0.7c-0.7,0.4-1.4,0.9-2.1,1.6c-1.4,1.2-2.9,3-4.9,4
					c-1,0.5-2.2,0.8-3.5,1c-1.3,0.2-2.7,0.4-4.1,0.9c-1.4,0.5-2.8,1.4-3.7,2.5c-0.9,1.1-1.6,2-2.5,2.8c-1.7,1.6-3.5,2.8-5.1,3.7
					c-3.2,1.8-5.2,2.8-5.1,3.1c0.1,0.2,2.3-0.5,5.6-2.1c1.7-0.8,3.6-2,5.5-3.7c1-0.8,1.8-1.9,2.7-2.9c0.8-1,1.8-1.6,3.1-2
					c2.5-0.8,5.4-0.8,7.7-2.1c1.2-0.6,2.1-1.5,2.9-2.2c0.8-0.8,1.5-1.5,2.1-2.2c0.6-0.7,1.2-1.2,1.8-1.6c0.6-0.4,1.1-0.7,1.6-0.8
					C170.4-142.3,171-142.2,171-142.3z"/>
			</g>
		</g>
	</g>
	<g>
		<g>
			<g>
				<path class="st2" d="M154-162c0,0,0-0.2-0.4-0.4c-0.3-0.2-1-0.3-1.6,0c-0.3,0.2-0.7,0.4-0.9,0.7c-0.3,0.3-0.5,0.8-0.7,1.2
					c-0.3,0.9-0.5,2-1,2.9c-0.5,0.9-1.4,1.6-2.6,2.1c-1.2,0.5-2.5,0.7-4,1c-3,0.6-6.2,1.3-9.7,2.1c-0.9,0.2-1.7,0.3-2.6,0.6
					c-0.9,0.3-1.8,0.7-2.4,1.5c-0.7,0.8-1,1.7-1.2,2.5c-0.2,0.8-0.2,1.7-0.3,2.4c-0.1,1.5-0.2,2.9-0.8,3.9c-0.6,1.1-1.5,1.7-2.5,2.1
					c-2,0.8-3.9,0.7-5.2,0.7c-1.3,0-2-0.1-2,0c0,0.1,0.7,0.3,2,0.5c0.6,0.1,1.4,0.2,2.4,0.2c0.9,0,2-0.1,3.2-0.5
					c1.2-0.4,2.4-1.2,3.2-2.5c0.8-1.3,1-2.9,1.1-4.4c0.1-1.5,0.3-3.1,1.2-4.1c0.9-1,2.5-1.3,4.3-1.7c3.4-0.8,6.7-1.5,9.6-2.2
					c1.5-0.3,2.9-0.7,4.3-1.3c1.3-0.6,2.5-1.5,3-2.7c0.5-1.2,0.6-2.2,0.8-3.1c0.1-0.4,0.2-0.8,0.4-1c0.2-0.3,0.4-0.5,0.7-0.7
					c0.5-0.3,0.9-0.4,1.2-0.3C153.9-162.1,154-162,154-162z"/>
			</g>
		</g>
	</g>
	<g>
		<g>
			<g>
				<path class="st2" d="M134.6-180.6c0-0.1-0.8-0.3-2.3-0.5c-1.5-0.1-3.7-0.1-6.3,0.6c-0.6,0.2-1.4,0.4-2.1,0.8
					c-0.7,0.4-1.5,1.2-1.6,2.2c-0.1,1,0.2,1.9,0.4,2.6c0.2,0.8,0.3,1.4,0.1,2.1c-0.5,1.3-2.2,2.1-3.8,2.5c-1.8,0.4-3.7,0.6-5.7,0.7
					c-1,0-2,0-2.9,0c-0.9,0-1.9-0.2-2.9-0.2c-1,0-2.1,0.2-3.1,0.8c-0.9,0.6-1.5,1.5-1.9,2.3c-0.8,1.7-1.1,3.3-1.8,4.7
					c-0.6,1.4-1.5,2.3-2.6,2.7c-1.1,0.4-2.3,0.3-3.3,0.2c-1-0.2-1.8-0.4-2.5-0.7c-1.4-0.5-2.1-0.8-2.2-0.7c0,0.1,0.6,0.6,2,1.2
					c0.7,0.3,1.5,0.7,2.6,1c1,0.3,2.4,0.4,3.8,0c0.7-0.2,1.4-0.6,2-1.2c0.6-0.6,1-1.3,1.4-2c0.7-1.5,1.1-3.1,1.9-4.6
					c0.4-0.7,0.8-1.3,1.5-1.7c0.6-0.4,1.4-0.5,2.3-0.5c0.9,0,1.8,0.1,2.8,0.2c1,0.1,2,0.1,3,0c2.1-0.1,4-0.3,6-0.7
					c1-0.2,1.9-0.6,2.8-1.1c0.8-0.5,1.7-1.3,2-2.3c0.2-0.5,0.2-1.1,0.2-1.6c-0.1-0.5-0.2-1-0.3-1.4c-0.3-0.8-0.5-1.5-0.5-2.1
					c0-0.6,0.4-1,0.9-1.3c0.5-0.3,1.2-0.5,1.8-0.7c2.5-0.8,4.6-1,6-1C133.8-180.5,134.6-180.5,134.6-180.6z"/>
			</g>
		</g>
	</g>
	<g>
		<g>
			<g>
				<path class="st2" d="M96.5-199.4c0-0.1-0.9,0-2.5,0.3c-1.6,0.3-3.9,1-6.7,2c-0.7,0.3-1.4,0.5-2.2,0.9c-0.7,0.4-1.5,1-2.1,1.8
					c-0.5,0.8-0.7,1.7-1.2,2.3c-0.4,0.6-1.2,0.9-2,1.1c-3.8,0.7-7.9,1.5-12.3,2.3c-0.5,0.1-1.3,0.2-1.9,0.8
					c-0.6,0.6-0.8,1.5-0.7,2.1c0.2,1.3,0.8,2.2,1,3.1c0.5,1.8,0,3.7-0.9,5.3c-0.9,1.6-2.2,2.8-3.5,3.6c-1.4,0.8-2.9,1.2-4.3,1.4
					c-2.8,0.4-5.2,0.1-6.8-0.1c-1.6-0.2-2.5-0.2-2.5-0.1c0,0.1,0.8,0.4,2.5,0.7c1.6,0.3,4,0.8,7,0.5c1.5-0.1,3.1-0.5,4.8-1.4
					c1.6-0.9,3.1-2.2,4.1-4c1-1.8,1.7-4,1.1-6.3c-0.3-1.2-0.9-2.1-1-2.9c-0.1-0.8,0.2-1.1,1.4-1.3c2.2-0.4,4.3-0.8,6.4-1.2
					c1-0.2,2-0.4,3-0.6c1-0.2,1.9-0.4,2.9-0.6c1-0.3,2.1-0.7,2.7-1.7c0.6-0.9,0.8-1.8,1.2-2.4c0.7-1.3,2.2-1.9,3.5-2.4
					C93-198.4,96.6-199.2,96.5-199.4z"/>
			</g>
		</g>
	</g>
	<g>
		<g>
			<g>
				<path class="st2" d="M57.4-221.9c0,0-0.2,0.1-0.4,0.3c-0.2,0.2-0.5,0.5-0.9,0.9c-0.8,0.8-2,1.7-3.7,2.7c-0.9,0.5-1.8,1-2.8,1.6
					c-1,0.6-2.1,1.3-3.1,2.2c-1,0.9-2,2.1-2.6,3.5c-0.7,1.5-0.7,3-1.2,4.2c-0.6,1.2-1.6,2.2-2.6,3.1c-1.1,0.9-2.1,1.8-3,2.7
					c-1.9,1.7-3.8,3.1-5.4,4.2c-3.3,2.1-5.7,2.7-5.6,2.9c0,0.2,2.6,0,6.2-2c1.8-1,3.7-2.4,5.8-4c1-0.8,2.1-1.7,3.1-2.7
					c1.1-1,2.2-2,3-3.6c0.8-1.6,0.7-3.1,1.2-4.3c0.5-1.2,1.3-2.2,2.2-3c1.8-1.7,3.9-2.8,5.6-4c1.7-1.1,2.9-2.3,3.6-3.2
					c0.4-0.4,0.6-0.8,0.7-1.1C57.4-221.8,57.5-221.9,57.4-221.9z"/>
			</g>
		</g>
	</g>
	<g>
		<g>
			<g>
				<path class="st2" d="M33.2-244.1c-0.1-0.1-0.9,0.4-2.4,1.3c-0.7,0.5-1.7,1.1-2.7,1.9c-1,0.8-2,1.9-2.9,3.3
					c-0.9,1.4-1.6,3-2.3,4.7c-0.7,1.7-1.4,3.5-2.4,5.2c-0.5,0.8-1.1,1.6-1.9,2.3c-0.8,0.7-1.6,1.2-2.6,1.7c-1.9,0.9-4.2,1.3-6.6,1.8
					c-2.3,0.5-4.7,1-6.9,2.2c-0.5,0.3-1,0.7-1.5,1c-0.4,0.4-0.9,0.8-1.3,1.2c-0.8,0.9-1.3,1.9-1.8,2.8c-1,1.9-1.8,3.6-3,4.9
					c-1.1,1.4-2.5,2.3-3.9,2.9c-2.8,1.3-5.3,1.6-7,1.8c-1.7,0.2-2.7,0.2-2.7,0.3c0,0.1,1,0.3,2.7,0.3c1.8,0,4.4-0.1,7.4-1.4
					c1.5-0.7,3.1-1.6,4.4-3.1c1.3-1.4,2.2-3.3,3.2-5.1c1-1.8,2.2-3.4,4.1-4.4c1.8-1.1,4.1-1.6,6.4-2.1c2.3-0.5,4.7-0.9,6.9-2
					c1.1-0.5,2.1-1.2,3-1.9c0.9-0.8,1.5-1.7,2.1-2.6c1.1-1.9,1.8-3.8,2.4-5.5c0.6-1.7,1.3-3.3,2-4.6c1.5-2.7,3.6-4.1,5-5.2
					C32.5-243.3,33.2-244,33.2-244.1z"/>
			</g>
		</g>
	</g>
	<g>
		<g>
			<g>
				<path class="st2" d="M0.4-267.8c0,0-0.3,0.1-0.8,0.4c-0.5,0.3-1.3,0.8-2.2,1.5c-1.9,1.4-4.4,3.7-7.1,6.9
					c-2.7,3.2-5.6,7.2-9.1,11.4c-1.7,2.1-3.6,4.2-5.8,6.2l-0.8,0.7l-0.9,0.7c-0.6,0.5-1.2,0.9-1.8,1.4c-1.2,0.9-2.5,1.8-3.8,2.7
					c-1.3,1-2.5,2-3.6,3.3c-1,1.2-1.8,2.7-2.4,4.2c-1,2.9-1.4,5.8-2.9,7.9c-1.4,2.1-3.7,3.4-5.9,4.2c-2.2,0.7-4.5,1-6.5,1
					c-2,0-3.9-0.1-5.6-0.2c-1.7-0.1-3.1-0.1-4.3,0c-2.3,0.1-3.6,0.5-3.6,0.6c0,0.1,1.3-0.1,3.6,0c1.2,0,2.6,0.1,4.2,0.3
					c1.6,0.1,3.5,0.3,5.6,0.4c2.1,0.1,4.5-0.1,6.9-0.9c2.4-0.7,5-2.1,6.7-4.6c1.7-2.4,2.2-5.5,3.2-8.2c0.5-1.4,1.2-2.6,2.1-3.7
					c0.9-1.1,2.1-2.1,3.3-3c1.2-0.9,2.5-1.8,3.8-2.7c0.6-0.5,1.2-0.9,1.8-1.4l0.9-0.7l0.8-0.8c2.2-2.1,4.1-4.3,5.9-6.4
					c3.4-4.3,6.2-8.4,8.8-11.6C-3.9-264.9,0.6-267.6,0.4-267.8z"/>
			</g>
		</g>
	</g>
</symbol>
<use xlink:href="#Nuevo_símbolo"  width="676.3" height="615" x="-338.2" y="-307.5" transform="matrix(6.703063e-02 0 0 -6.703063e-02 27 24.5)" style="overflow:visible;"/>
</svg>
